<svg xmlns="http://www.w3.org/2000/svg" viewBox="0 0 150 141.3">
<!-- SVG created with Arrow, by QuiverAI (https://quiver.ai) -->
  <style type="text/css">.cls-1 {fill:#62928D;}
.cls-2 {fill:#183251;}
.cls-3 {fill:#FCFCFC;}
.cls-4 {fill:#183151;}</style>
  <path class="cls-1" d="m122.5 62.3c14.5-8.1 24.7-23.9 25.9-27.3-1.8-3.1-16.4-25.6-36.3-31-6.9-1.9-10.4-2-18-2-2.5 0-4.9 0-7.1 0.3 6.8 0.5 14.4 2.7 19.9 8.1 1.9 2 3.8 4 7.3 5 10.2 4.4 18.7 13.7 22.8 19.5-0.3 1.2-8.3 12.2-22.6 19.7l8.1 7.7z"/>
  <path class="cls-1" d="m89.9 77c-9.5 0.4-20-2.6-27.4-7.3-16.7-10.2-26.9-27.8-30.1-33.9 2-3.9 11.2-16.2 20.2-23.7h-40.5l4.1 19.6 3.6 3.3 2.7 1.6 0.9 2.8-2.5 6.2 1.4 4.3-1.4 12.2 3 9.3 15 2.1 0.9 1.4-13.4 3.7-0.9 1.9 20.1 21.9 4.7 5.7 1.7 9-0.3 4.5 7.4 9.6 7.1 1 2.4-13.2 9.8-15.4-1.8-11.7 1.8-1.6 4.5 7.2 5 0.2-0.5-12.6 2.5-8.1z"/>
  <path class="cls-1" d="m107.1 61.9-11.5 4.6-6.9 1.8c5.4 0.7 13.9 0.7 23.2-1.7l-4.8-4.7z"/>
  <path class="cls-2" d="m68.6 1.7h-61.8c-3.8 0-5.6 3-4.9 6.5l5.3 28.6 4.8 4.5v0.1h0.1l-1.7 4c0.7 1.1 2.2 2.7 2.3 4.2 0.2 3.5-2 8.3-2 13.5 2.2 5 3.7 10.6 5.1 13 1.8 2.9 1.8 2.4 1.4 8.9 0.4 0.6 20.4 21.6 23.4 25.4 5 9 3.8 10.5 1.2 13.5l11.6 11.1 3.6 4.4h16.9l2.6-16.9c0.4-1.1 5.6-8.6 7.1-11.6 1.4-2.3 6.5-0.5 9.4-1.5 1.9-0.7 3.1-2 3.8-4 0.8-1.8-0.2-8-0.7-16.8 0-2.2 5-8.9 6.8-13.9-2.3 0.7-7.3 2-13 2.3l-3.8 7.4c-0.7 1.7-0.2 7.5 0.3 14.7h-2.7l-5.8-10.4c-4.5 1.7-2.8 6.9-2.2 14.9l-0.6 1.4c-1.7 2.9-7.1 11.4-8.2 13.1-0.4 0.8-1.5 11.3-1.6 11.3l-3.6-0.1c-2.1-2.6-4.6-5.2-7.1-7.7 0.1-1.9 0-4.5-1-7.6-2-5.9-4.2-9.6-5.2-10.6-4.3-4-15.4-15.8-20.4-21.4-1-1-1.4-2.4 0.1-3 6-1.9 11.8-3.1 12.1-4.3 0.2-0.7-0.6-2.5-3.2-3.1-2.9-0.7-7.6-0.2-12.3-0.5-1.1-3.5-2.8-7.5-3.3-9.1-0.4-2 2-8.6 1.3-12-0.1-0.6-1.6-4.1-1.6-5 0.5-3.1 3-6.1 0.5-8.9-1.7-1.4-4.7-3.4-5.4-4.5l-4.1-19.5h40.5c4.5-3.7 9.8-7.5 16-10.4z"/>
  <path class="cls-3" d="m87.9 6.9c-17.3 0-35.3 17.1-42.8 28.5 5.6 8.7 20.3 28.5 41.4 28.6 17.2 0 28.2-10.6 28.2-28.1 0-14.8-11.5-29-26.8-29z"/>
  <path class="cls-4" d="m104 27.1"/>
  <path class="cls-4" d="m114.4 54.4c3.2-4.7 5.7-10.5 5.7-19.3 0-8.7-4.4-17.7-11-24.5-5.2-5-12.5-8.6-20.5-8.6-21.7 0-41 20-48.5 32.7l-0.5 0.2c4.5 7.7 20.3 32.2 45 33.2 9 0.5 15-1.5 22.4-6.1l30.6 29.6 6.9-7-30.1-30.2zm-25.5 3.5c-16.2 0-28-11.3-36.4-23 2.1-3.5 16.2-21 34.1-22.4 12.8-0.9 23.1 9.5 23.1 22.5 0 11.1-8.3 22.6-20.8 22.9z"/>
  <path class="cls-4" d="m89.4 21.1c-8-0.2-14.3 6.3-14.3 13.5 0 7.5 5.3 14.5 14.3 14.5 8.7 0 14-6.7 14-13.7 0-1.5-0.4-3.8-0.8-4.8-0.6 2.4-3 4.8-6.5 4.8s-6.7-2.8-6.7-6.5c0-3.8 2.7-5.9 5.2-6.8-0.9-0.5-3.2-1-5.2-1z"/>
</svg>